<svg xmlns="http://www.w3.org/2000/svg" viewBox="0 0 140.41 102.07">
  <defs>
    <style>
.cls-1,.cls-3{fill:none;stroke-linecap:round;stroke-width:0.25px;}.cls-1,.cls-2,.cls-3{stroke:#000;}.cls-1{stroke-linejoin:round;}.cls-2,.cls-3{stroke-miterlimit:10;}
</style>
  </defs>
  <title>资源 2</title>
  <g id="图层_2" data-name="图层 2">
    <g id="图层_1-2" data-name="图层 1">
      <g id="电压图A">
        <polyline class="cls-1" points="113.47 4.38 138.37 4.38 138.37 15.24"/>
        <line class="cls-1" x1="138.36" y1="19.21" x2="138.36" y2="42.61"/>
        <polyline class="cls-1" points="138.37 46.51 138.37 55.15 113.47 55.15"/>
        <line class="cls-1" x1="106.38" y1="55.15" x2="35.52" y2="55.15"/>
        <polyline class="cls-1" points="34.74 55.15 28.14 55.15 28.14 52.69"/>
        <line class="cls-1" x1="28.14" y1="33.91" x2="28.14" y2="32.89"/>
        <line class="cls-1" x1="28.14" y1="29.76" x2="28.14" y2="27.37"/>
        <polyline class="cls-1" points="28.14 8.59 28.14 4.38 34.74 4.38"/>
        <line class="cls-1" x1="35.52" y1="4.39" x2="106.38" y2="4.39"/>
        <path class="cls-2" d="M25.57,4.44l.29,25.32h-.29Zm.29,0h-.29l.29,25.32Z"/>
        <path class="cls-3" d="M25.57,4.44l.29,25.32h-.29Zm.29,0h-.29l.29,25.32Z"/>
        <line class="cls-1" x1="28.14" y1="29.76" x2="34.74" y2="29.76"/>
        <line class="cls-1" x1="71.76" y1="4.39" x2="71.76" y2="30.85"/>
        <line class="cls-1" x1="71.76" y1="34.99" x2="71.76" y2="53.04"/>
        <polyline class="cls-1" points="71.77 57.19 71.77 70.86 52.15 70.86 52.15 55.15"/>
        <line class="cls-1" x1="61.92" y1="70.87" x2="61.92" y2="57.18"/>
        <line class="cls-1" x1="61.92" y1="53.04" x2="61.92" y2="32.89"/>
        <polyline class="cls-1" points="102.55 0.13 117.25 0.13 117.25 59.34 102.55 59.34 102.55 0.13"/>
        <line class="cls-1" x1="128.16" y1="4.39" x2="128.16" y2="15.25"/>
        <line class="cls-1" x1="128.16" y1="19.21" x2="128.16" y2="42.61"/>
        <line class="cls-1" x1="128.16" y1="46.51" x2="128.16" y2="55.15"/>
        <line class="cls-1" x1="4.32" y1="4.39" x2="19.63" y2="4.39"/>
        <polyline class="cls-1" points="20.41 4.38 23.29 4.38 23.29 8.59"/>
        <line class="cls-1" x1="23.28" y1="27.37" x2="23.28" y2="33.91"/>
        <polyline class="cls-1" points="23.29 52.69 23.29 55.15 20.41 55.15"/>
        <line class="cls-1" x1="19.63" y1="55.15" x2="4.32" y2="55.15"/>
        <line class="cls-1" x1="23.28" y1="29.76" x2="20.4" y2="29.76"/>
        <line class="cls-1" x1="19.63" y1="29.76" x2="4.32" y2="29.76"/>
        <line class="cls-1" x1="4.32" y1="1.69" x2="4.32" y2="7.15"/>
        <polyline class="cls-1" points="10.27 2.94 16.5 2.94 16.5 5.88 10.27 5.88 10.27 2.94"/>
        <line class="cls-1" x1="4.32" y1="27.07" x2="4.32" y2="32.47"/>
        <polyline class="cls-1" points="10.27 28.32 16.5 28.32 16.5 31.2 10.27 31.2 10.27 28.32"/>
        <line class="cls-1" x1="4.32" y1="52.39" x2="4.32" y2="57.85"/>
        <polyline class="cls-1" points="10.27 53.65 16.5 53.65 16.5 56.59 10.27 56.59 10.27 53.65"/>
        <path class="cls-1" d="M20.34,4.42a.39.39,0,1,0-.77,0,.39.39,0,1,0,.77,0"/>
        <path class="cls-1" d="M20.34,29.74a.39.39,0,1,0-.77,0,.39.39,0,1,0,.77,0"/>
        <path class="cls-1" d="M20.34,55.12a.39.39,0,1,0-.77,0,.39.39,0,1,0,.77,0"/>
        <path class="cls-1" d="M23.25,10.87a1.17,1.17,0,1,0,0-2.34"/>
        <path class="cls-1" d="M23.25,13.21a1.17,1.17,0,1,0,0-2.34"/>
        <path class="cls-1" d="M23.25,15.55a1.17,1.17,0,1,0,0-2.34"/>
        <path class="cls-1" d="M23.25,17.94a1.17,1.17,0,1,0,0-2.33"/>
        <path class="cls-1" d="M23.25,20.29a1.18,1.18,0,0,0,0-2.35"/>
        <path class="cls-1" d="M23.25,22.63a1.17,1.17,0,0,0,0-2.34"/>
        <path class="cls-1" d="M23.25,25a1.17,1.17,0,0,0,0-2.34"/>
        <path class="cls-1" d="M23.25,27.31a1.17,1.17,0,0,0,0-2.34"/>
        <path class="cls-1" d="M28.11,8.53a1.17,1.17,0,1,0,0,2.34"/>
        <path class="cls-1" d="M28.11,10.87a1.17,1.17,0,1,0,0,2.34"/>
        <path class="cls-1" d="M28.11,13.21a1.17,1.17,0,1,0,0,2.34"/>
        <path class="cls-1" d="M28.11,15.61a1.17,1.17,0,1,0,0,2.33"/>
        <path class="cls-1" d="M28.11,17.94a1.18,1.18,0,0,0,0,2.35"/>
        <path class="cls-1" d="M28.11,20.29a1.17,1.17,0,1,0,0,2.34"/>
        <path class="cls-1" d="M28.11,22.63a1.17,1.17,0,0,0,0,2.34"/>
        <path class="cls-1" d="M28.11,25a1.17,1.17,0,0,0,0,2.34"/>
        <path class="cls-1" d="M23.25,36.25a1.17,1.17,0,0,0,0-2.34"/>
        <path class="cls-1" d="M23.25,38.58a1.17,1.17,0,1,0,0-2.33"/>
        <path class="cls-1" d="M23.25,40.93a1.18,1.18,0,0,0,0-2.35"/>
        <path class="cls-1" d="M23.25,43.26a1.17,1.17,0,1,0,0-2.33"/>
        <path class="cls-1" d="M23.25,45.61a1.18,1.18,0,0,0,0-2.35"/>
        <path class="cls-1" d="M23.25,48a1.17,1.17,0,0,0,0-2.34"/>
        <path class="cls-1" d="M23.25,50.35a1.17,1.17,0,1,0,0-2.34"/>
        <path class="cls-1" d="M23.25,52.68a1.17,1.17,0,1,0,0-2.33"/>
        <path class="cls-1" d="M28.11,33.91a1.17,1.17,0,1,0,0,2.34"/>
        <path class="cls-1" d="M28.11,36.25a1.17,1.17,0,1,0,0,2.33"/>
        <path class="cls-1" d="M28.11,38.58a1.18,1.18,0,0,0,0,2.35"/>
        <path class="cls-1" d="M28.11,40.93a1.17,1.17,0,1,0,0,2.33"/>
        <path class="cls-1" d="M28.11,43.26a1.18,1.18,0,0,0,0,2.35"/>
        <path class="cls-1" d="M28.11,45.67a1.17,1.17,0,0,0,0,2.34"/>
        <path class="cls-1" d="M28.11,48a1.17,1.17,0,1,0,0,2.34"/>
        <path class="cls-1" d="M28.11,50.35a1.17,1.17,0,1,0,0,2.33"/>
        <path class="cls-1" d="M35.52,29.74a.38.38,0,0,0-.39-.39.39.39,0,0,0-.39.39.4.4,0,0,0,.39.39.39.39,0,0,0,.39-.39"/>
        <line class="cls-1" x1="28.14" y1="32.89" x2="34.74" y2="32.89"/>
        <line class="cls-1" x1="35.52" y1="32.89" x2="106.38" y2="32.89"/>
        <line class="cls-1" x1="113.46" y1="32.89" x2="138.36" y2="32.89"/>
        <line class="cls-1" x1="35.16" y1="30.19" x2="35.16" y2="32.53"/>
        <path class="cls-1" d="M35.52,32.86a.38.38,0,0,0-.39-.39.39.39,0,0,0-.39.39.4.4,0,0,0,.39.39.39.39,0,0,0,.39-.39"/>
        <line class="cls-1" x1="35.16" y1="33.31" x2="35.16" y2="38.23"/>
        <line class="cls-1" x1="32.88" y1="38.23" x2="37.38" y2="38.23"/>
        <line class="cls-1" x1="33.72" y1="39.43" x2="36.6" y2="39.43"/>
        <line class="cls-1" x1="34.5" y1="40.63" x2="35.76" y2="40.63"/>
        <path class="cls-1" d="M35.52,55.12a.38.38,0,0,0-.39-.39.39.39,0,0,0-.39.39.4.4,0,0,0,.39.39.39.39,0,0,0,.39-.39"/>
        <path class="cls-1" d="M35.52,4.36A.38.38,0,0,0,35.13,4a.39.39,0,0,0-.39.39.4.4,0,0,0,.39.39.39.39,0,0,0,.39-.39"/>
        <path class="cls-1" d="M71.73,30.79a2.07,2.07,0,0,0,0,4.14"/>
        <path class="cls-1" d="M71.73,53a2.07,2.07,0,1,0,0,4.14"/>
        <path class="cls-1" d="M61.89,53a2.07,2.07,0,1,0,0,4.14"/>
        <polyline class="cls-1" points="45.97 74.17 45.97 58.69 77.94 58.69 77.94 74.17 45.97 74.17"/>
        <path class="cls-1" d="M108.42,4.36a1,1,0,0,0-1-1.05,1.05,1.05,0,1,0,1,1.05"/>
        <path class="cls-1" d="M113.46,4.36a1.05,1.05,0,1,0-2.1,0,1,1,0,0,0,2.1,0"/>
        <line class="cls-1" x1="107.4" y1="3.37" x2="112.44" y2="3.37"/>
        <line class="cls-1" x1="107.4" y1="5.47" x2="112.44" y2="5.47"/>
        <path class="cls-1" d="M108.42,32.86a1,1,0,0,0-1-1.05,1.05,1.05,0,1,0,1,1.05"/>
        <path class="cls-1" d="M113.46,32.86a1.05,1.05,0,0,0-2.1,0,1,1,0,0,0,2.1,0"/>
        <line class="cls-1" x1="107.4" y1="31.87" x2="112.44" y2="31.87"/>
        <line class="cls-1" x1="107.4" y1="33.91" x2="112.44" y2="33.91"/>
        <path class="cls-1" d="M108.42,55.12a1,1,0,0,0-1-1,1.05,1.05,0,1,0,1,1"/>
        <path class="cls-1" d="M113.46,55.12a1,1,0,0,0-2.1,0,1,1,0,0,0,2.1,0"/>
        <line class="cls-1" x1="107.4" y1="54.07" x2="112.44" y2="54.07"/>
        <line class="cls-1" x1="107.4" y1="56.17" x2="112.44" y2="56.17"/>
        <polyline class="cls-1" points="51.13 63.13 53.1 63.13 53.1 66.67 51.13 66.67 51.13 63.13"/>
        <polyline class="cls-1" points="60.97 63.13 62.95 63.13 62.95 66.67 60.97 66.67 60.97 63.13"/>
        <polyline class="cls-1" points="70.75 63.13 72.78 63.13 72.78 66.67 70.75 66.67 70.75 63.13"/>
        <polyline class="cls-1" points="59.59 101.58 60.84 97.81 62.16 101.58"/>
        <line class="cls-1" x1="61.74" y1="100.51" x2="59.94" y2="100.51"/>
        <line class="cls-1" x1="66" y1="98.05" x2="66" y2="100.87"/>
        <line class="cls-1" x1="66" y1="98.59" x2="68.1" y2="98.35"/>
        <line class="cls-1" x1="68.16" y1="98.17" x2="67.86" y2="100.27"/>
        <line class="cls-1" x1="67.98" y1="100.27" x2="66" y2="100.45"/>
        <polyline class="cls-1" points="67.03 97.2 67.03 101.34 67.03 101.58 67.14 101.77 67.44 101.94 68.64 101.89 68.47 100.81"/>
        <line class="cls-1" x1="66.36" y1="99.43" x2="67.63" y2="99.25"/>
        <line class="cls-1" x1="70.92" y1="101.41" x2="70.92" y2="98.29"/>
        <line class="cls-1" x1="71.4" y1="100.27" x2="71.76" y2="100.81"/>
        <line class="cls-1" x1="70.02" y1="99.49" x2="71.76" y2="99.25"/>
        <line class="cls-1" x1="69.66" y1="101.59" x2="72.13" y2="101.35"/>
        <line class="cls-1" x1="69.84" y1="97.99" x2="71.88" y2="97.69"/>
        <polyline class="cls-1" points="69.84 97.44 69.78 99.97 69.61 100.92 69.19 101.94"/>
        <line class="cls-1" x1="75.42" y1="97.69" x2="73.14" y2="97.93"/>
        <line class="cls-1" x1="73.14" y1="101.59" x2="75.24" y2="101.41"/>
        <polyline class="cls-1" points="75.42 97.44 75.36 101.7 75.36 101.89"/>
        <line class="cls-1" x1="75.36" y1="101.71" x2="75.24" y2="101.41"/>
        <polyline class="cls-1" points="73.14 101.77 73.14 97.44 73.14 101.94"/>
        <line class="cls-1" x1="74.28" y1="98.11" x2="73.44" y2="99.37"/>
        <polyline class="cls-1" points="73.92 99 75 100.14 75.31 100.08"/>
        <line class="cls-1" x1="74.1" y1="100.09" x2="74.46" y2="100.51"/>
        <line class="cls-1" x1="73.92" y1="100.69" x2="74.46" y2="101.29"/>
        <line class="cls-1" x1="73.98" y1="98.65" x2="74.7" y2="98.59"/>
        <polyline class="cls-1" points="73.2 100.39 73.98 99.72 74.28 99.31 74.89 98.34"/>
        <line class="cls-1" x1="101.64" y1="71.05" x2="101.64" y2="73.21"/>
        <line class="cls-1" x1="101.64" y1="71.41" x2="103.2" y2="71.29"/>
        <line class="cls-1" x1="103.26" y1="71.17" x2="103.02" y2="72.73"/>
        <line class="cls-1" x1="103.14" y1="72.73" x2="101.64" y2="72.91"/>
        <polyline class="cls-1" points="102.36 70.39 102.36 73.63 102.42 73.75 102.48 73.86 102.72 74.05 103.63 73.98 103.5 73.14"/>
        <line class="cls-1" x1="101.88" y1="72.13" x2="102.84" y2="71.95"/>
        <line class="cls-1" x1="104.04" y1="71.71" x2="104.64" y2="71.59"/>
        <line class="cls-1" x1="104.04" y1="73.51" x2="104.82" y2="73.03"/>
        <line class="cls-1" x1="104.64" y1="70.45" x2="104.1" y2="71.71"/>
        <line class="cls-1" x1="104.76" y1="71.29" x2="104.1" y2="72.73"/>
        <line class="cls-1" x1="104.04" y1="72.79" x2="104.82" y2="72.43"/>
        <line class="cls-1" x1="105.06" y1="70.63" x2="105.06" y2="71.65"/>
        <line class="cls-1" x1="105.36" y1="70.39" x2="105.36" y2="71.83"/>
        <line class="cls-1" x1="105.9" y1="70.39" x2="105.54" y2="71.59"/>
        <line class="cls-1" x1="105.72" y1="70.99" x2="106.38" y2="70.87"/>
        <line class="cls-1" x1="105.06" y1="71.95" x2="105.06" y2="73.27"/>
        <line class="cls-1" x1="105.06" y1="72.07" x2="105.96" y2="71.95"/>
        <line class="cls-1" x1="106.02" y1="71.89" x2="105.96" y2="73.27"/>
        <polyline class="cls-1" points="105.61 73.03 105.61 73.81 105.78 73.98 106.39 73.98 106.39 73.33"/>
        <line class="cls-1" x1="105.96" y1="71.29" x2="106.02" y2="71.71"/>
        <polyline class="cls-1" points="105.61 72.36 105.36 73.27 105.13 73.75 104.58 74.17"/>
        <line class="cls-1" x1="108.48" y1="70.87" x2="108.48" y2="74.17"/>
        <line class="cls-1" x1="109.14" y1="71.95" x2="107.88" y2="72.19"/>
        <line class="cls-1" x1="108" y1="70.93" x2="109.02" y2="70.75"/>
        <line class="cls-1" x1="106.74" y1="73.09" x2="107.4" y2="71.53"/>
        <line class="cls-1" x1="107.82" y1="71.35" x2="106.8" y2="71.53"/>
        <line class="cls-1" x1="107.76" y1="72.37" x2="107.4" y2="71.77"/>
        <line class="cls-1" x1="107.4" y1="70.63" x2="107.4" y2="74.11"/>
        <path class="cls-1" d="M100.68,72.34a2,2,0,1,0-2,2,1.95,1.95,0,0,0,2-2"/>
        <polyline class="cls-1" points="97.63 71.89 97.81 71.83 98.05 71.58 98.05 73.2"/>
        <line class="cls-1" x1="97.92" y1="71.65" x2="97.92" y2="73.21"/>
        <line class="cls-1" x1="97.63" y1="73.21" x2="98.34" y2="73.21"/>
        <polyline class="cls-1" points="99.25 71.58 99 71.64 98.89 71.89 98.83 72.25 98.83 72.48 98.89 72.91 99 73.08 99.25 73.2 99.42 73.2 99.67 73.08 99.78 72.91 99.84 72.48 99.84 72.25 99.78 71.89 99.67 71.64 99.42 71.58 99.25 71.58 99.13 71.64 99 71.7 98.94 71.89 98.89 72.25 98.89 72.48 98.94 72.91 99 73.03 99.13 73.08 99.25 73.2"/>
        <polyline class="cls-1" points="99.42 73.2 99.55 73.08 99.67 73.03 99.72 72.91 99.78 72.48 99.78 72.25 99.72 71.89 99.67 71.7 99.55 71.64"/>
        <path class="cls-1" d="M96,72.34a2,2,0,1,0-2,2,1.95,1.95,0,0,0,2-2"/>
        <polyline class="cls-1" points="94.75 72 94.63 72.31 94.44 72.55 94.08 72.67 93.97 72.67 93.67 72.55 93.42 72.31 93.36 72 93.36 71.89 93.42 71.58 93.67 71.34 93.97 71.22 94.2 71.22 94.5 71.34 94.75 71.58 94.86 71.89 94.86 72.55 94.75 72.97 94.63 73.2 94.44 73.39 94.08 73.5 93.78 73.5 93.55 73.39 93.42 73.2 93.42 73.08 93.55 72.97 93.67 73.08 93.55 73.2"/>
        <polyline class="cls-1" points="93.97 72.67 93.78 72.55 93.55 72.31 93.42 72 93.42 71.89 93.55 71.58 93.78 71.34 93.97 71.22"/>
        <polyline class="cls-1" points="94.2 71.22 94.44 71.34 94.63 71.58 94.75 71.89 94.75 72.55 94.63 72.97 94.5 73.2 94.33 73.39"/>
        <line class="cls-1" x1="80.82" y1="71.59" x2="80.82" y2="73.09"/>
        <polyline class="cls-1" points="80.83 72.91 81.84 72.78 81.84 71.7"/>
        <line class="cls-1" x1="81.84" y1="71.83" x2="80.82" y2="71.95"/>
        <line class="cls-1" x1="81.3" y1="71.89" x2="81.3" y2="70.39"/>
        <line class="cls-1" x1="81.3" y1="71.23" x2="82.2" y2="71.11"/>
        <line class="cls-1" x1="80.52" y1="73.09" x2="80.34" y2="74.11"/>
        <line class="cls-1" x1="80.94" y1="73.21" x2="81.13" y2="74.05"/>
        <line class="cls-1" x1="81.48" y1="73.21" x2="81.66" y2="73.99"/>
        <line class="cls-1" x1="81.84" y1="73.09" x2="82.26" y2="74.11"/>
        <line class="cls-1" x1="82.98" y1="73.87" x2="84.07" y2="73.21"/>
        <line class="cls-1" x1="83.16" y1="73.75" x2="83.1" y2="71.65"/>
        <line class="cls-1" x1="83.58" y1="73.45" x2="83.58" y2="70.75"/>
        <line class="cls-1" x1="83.58" y1="72.13" x2="84.07" y2="72.07"/>
        <polyline class="cls-1" points="84.25 70.44 84.25 73.75 84.61 73.98 85.14 73.98 85.08 73.08"/>
        <line class="cls-1" x1="84.24" y1="72.49" x2="84.84" y2="71.59"/>
        <line class="cls-1" x1="86.28" y1="70.51" x2="86.64" y2="71.41"/>
        <line class="cls-1" x1="86.04" y1="71.71" x2="87.66" y2="71.53"/>
        <line class="cls-1" x1="88.02" y1="72.37" x2="85.8" y2="72.61"/>
        <polyline class="cls-1" points="86.89 71.64 86.7 72.78 86.41 73.56 85.69 74.17"/>
        <polyline class="cls-1" points="86.77 72.48 87.67 74.05 88.03 74.05"/>
        <line class="cls-1" x1="87.3" y1="70.45" x2="87" y2="71.65"/>
        <line class="cls-1" x1="88.44" y1="71.23" x2="89.52" y2="71.05"/>
        <line class="cls-1" x1="88.44" y1="73.39" x2="89.4" y2="72.79"/>
        <line class="cls-1" x1="89.22" y1="74.17" x2="89.22" y2="71.11"/>
        <line class="cls-1" x1="88.74" y1="71.23" x2="88.74" y2="73.21"/>
        <line class="cls-1" x1="88.74" y1="71.83" x2="89.1" y2="71.71"/>
        <line class="cls-1" x1="88.74" y1="72.55" x2="89.16" y2="72.49"/>
        <line class="cls-1" x1="89.58" y1="70.87" x2="89.76" y2="71.59"/>
        <line class="cls-1" x1="89.4" y1="71.89" x2="90.6" y2="71.65"/>
        <line class="cls-1" x1="90.3" y1="70.51" x2="90.18" y2="71.71"/>
        <line class="cls-1" x1="89.28" y1="72.67" x2="90.72" y2="72.37"/>
        <line class="cls-1" x1="90.06" y1="71.77" x2="89.88" y2="73.09"/>
        <polyline class="cls-1" points="89.94 72.55 90.42 73.98 90.72 73.98"/>
        <polyline class="cls-1" points="89.89 73.08 89.64 73.63 89.34 74.17"/>
        <line class="cls-1" x1="1.44" y1="56.89" x2="0.9" y2="56.89"/>
        <path class="cls-1" d="M.13,56.14a.75.75,0,0,0,.75.75"/>
        <line class="cls-1" x1="0.13" y1="56.17" x2="0.13" y2="54.73"/>
        <path class="cls-1" d="M.88,54a.74.74,0,0,0-.75.75"/>
        <line class="cls-1" x1="0.9" y1="53.95" x2="1.44" y2="53.95"/>
        <line class="cls-1" x1="0.13" y1="31.57" x2="0.96" y2="31.57"/>
        <path class="cls-1" d="M.93,31.51a.82.82,0,0,0,.81-.82.8.8,0,0,0-.81-.8"/>
        <line class="cls-1" x1="0.96" y1="29.89" x2="0.13" y2="29.89"/>
        <path class="cls-1" d="M.93,29.89a.64.64,0,0,0,.64-.63.64.64,0,0,0-.64-.63"/>
        <polyline class="cls-1" points="0.96 28.63 0.13 28.63 0.13 31.57"/>
        <polyline class="cls-1" points="0.13 6.18 1.15 3.25 2.1 6.18"/>
        <line class="cls-1" x1="1.8" y1="5.41" x2="0.42" y2="5.41"/>
        <path class="cls-1" d="M38.2,75.59a2.1,2.1,0,0,0-.82-.16"/>
        <path class="cls-1" d="M37.35,75.43a.63.63,0,0,0-.28,1.19"/>
        <line class="cls-1" x1="37.08" y1="76.69" x2="38.04" y2="77.17"/>
        <path class="cls-1" d="M37.72,78.36A.63.63,0,0,0,38,77.17"/>
        <path class="cls-1" d="M36.74,78a1.75,1.75,0,0,0,1,.32"/>
        <polyline class="cls-1" points="39.37 78.36 40.33 75.42 41.34 78.36"/>
        <line class="cls-1" x1="41.04" y1="77.58" x2="39.66" y2="77.58"/>
        <line class="cls-1" x1="73.57" y1="68.35" x2="73.26" y2="68.35"/>
        <path class="cls-1" d="M72.84,68a.4.4,0,0,0,.39.39"/>
        <line class="cls-1" x1="72.9" y1="67.99" x2="72.9" y2="67.27"/>
        <path class="cls-1" d="M73.23,66.85a.39.39,0,0,0-.39.39"/>
        <line class="cls-1" x1="73.26" y1="66.91" x2="73.57" y2="66.91"/>
        <path class="cls-1" d="M74.48,66.83a.73.73,0,0,0-.49.66"/>
        <line class="cls-1" x1="74.04" y1="67.57" x2="74.04" y2="68.05"/>
        <path class="cls-1" d="M74,68a.34.34,0,0,0,.34.33.32.32,0,0,0,.32-.33"/>
        <line class="cls-1" x1="74.7" y1="68.05" x2="74.7" y2="67.87"/>
        <path class="cls-1" d="M74.64,67.81a.26.26,0,0,0-.3-.3"/>
        <line class="cls-1" x1="74.34" y1="67.57" x2="74.04" y2="67.57"/>
        <polyline class="cls-1" points="75.48 66.91 75.19 68.05 76.03 68.05"/>
        <line class="cls-1" x1="75.78" y1="67.69" x2="75.78" y2="68.35"/>
        <path class="cls-1" d="M76.67,67a1.3,1.3,0,0,0,0,1.27"/>
        <path class="cls-1" d="M76.94,66.93a.21.21,0,0,0-.17-.08.21.21,0,0,0-.16.08"/>
        <path class="cls-1" d="M76.94,68.23a1.3,1.3,0,0,0,0-1.27"/>
        <path class="cls-1" d="M76.61,68.26a.22.22,0,0,0,.16.09.22.22,0,0,0,.17-.09"/>
        <line class="cls-1" x1="63.07" y1="68.35" x2="63.48" y2="68.35"/>
        <path class="cls-1" d="M63.45,68.29a.39.39,0,0,0,.39-.39.38.38,0,0,0-.39-.39"/>
        <line class="cls-1" x1="63.48" y1="67.57" x2="63.07" y2="67.57"/>
        <path class="cls-1" d="M63.45,67.51a.33.33,0,0,0,.33-.33.32.32,0,0,0-.33-.33"/>
        <polyline class="cls-1" points="63.48 66.91 63.06 66.91 63.06 68.34"/>
        <path class="cls-1" d="M64.82,66.83a.73.73,0,0,0-.49.66"/>
        <line class="cls-1" x1="64.38" y1="67.57" x2="64.38" y2="68.05"/>
        <path class="cls-1" d="M64.32,68a.33.33,0,0,0,.33.33A.33.33,0,0,0,65,68"/>
        <line class="cls-1" x1="65.04" y1="68.05" x2="65.04" y2="67.87"/>
        <path class="cls-1" d="M65,67.81a.26.26,0,0,0-.3-.3"/>
        <line class="cls-1" x1="64.68" y1="67.57" x2="64.38" y2="67.57"/>
        <polyline class="cls-1" points="65.83 66.91 65.53 68.05 66.36 68.05"/>
        <line class="cls-1" x1="66.07" y1="67.69" x2="66.07" y2="68.35"/>
        <path class="cls-1" d="M67,67a1.3,1.3,0,0,0,0,1.27"/>
        <path class="cls-1" d="M67.28,66.93a.21.21,0,0,0-.17-.08.21.21,0,0,0-.16.08"/>
        <path class="cls-1" d="M67.28,68.23a1.3,1.3,0,0,0,0-1.27"/>
        <path class="cls-1" d="M67,68.26a.22.22,0,0,0,.16.09.22.22,0,0,0,.17-.09"/>
        <polyline class="cls-1" points="53.23 68.34 53.7 66.91 54.24 68.34"/>
        <line class="cls-1" x1="54.07" y1="67.93" x2="53.4" y2="67.93"/>
        <path class="cls-1" d="M55.16,66.83a.73.73,0,0,0-.49.66"/>
        <line class="cls-1" x1="54.72" y1="67.57" x2="54.72" y2="68.05"/>
        <path class="cls-1" d="M54.66,68a.33.33,0,0,0,.33.33.33.33,0,0,0,.33-.33"/>
        <line class="cls-1" x1="55.38" y1="68.05" x2="55.38" y2="67.87"/>
        <path class="cls-1" d="M55.32,67.81a.26.26,0,0,0-.3-.3"/>
        <line class="cls-1" x1="55.02" y1="67.57" x2="54.72" y2="67.57"/>
        <polyline class="cls-1" points="56.16 66.91 55.87 68.05 56.65 68.05"/>
        <line class="cls-1" x1="56.4" y1="67.69" x2="56.4" y2="68.35"/>
        <path class="cls-1" d="M57.35,67a1.3,1.3,0,0,0,0,1.27"/>
        <path class="cls-1" d="M57.62,66.93a.21.21,0,0,0-.17-.08.21.21,0,0,0-.16.08"/>
        <path class="cls-1" d="M57.62,68.23a1.3,1.3,0,0,0,0-1.27"/>
        <path class="cls-1" d="M57.29,68.26a.22.22,0,0,0,.16.09.22.22,0,0,0,.17-.09"/>
        <line class="cls-1" x1="68.04" y1="61.51" x2="68.4" y2="61.51"/>
        <path class="cls-1" d="M68.38,62.17a.32.32,0,0,0,.32-.33.32.32,0,0,0-.32-.33"/>
        <line class="cls-1" x1="68.4" y1="62.17" x2="68.22" y2="62.17"/>
        <path class="cls-1" d="M68.7,62.44a.32.32,0,0,0-.32-.33"/>
        <line class="cls-1" x1="68.7" y1="62.47" x2="68.7" y2="62.65"/>
        <path class="cls-1" d="M68.38,63a.32.32,0,0,0,.32-.33"/>
        <line class="cls-1" x1="68.4" y1="63.01" x2="68.04" y2="63.01"/>
        <polyline class="cls-1" points="69.19 63.01 69.19 61.51 69.61 61.51"/>
        <path class="cls-1" d="M69.57,62.29A.39.39,0,0,0,70,61.9a.38.38,0,0,0-.39-.39"/>
        <line class="cls-1" x1="69.6" y1="62.35" x2="69.18" y2="62.35"/>
        <line class="cls-1" x1="69.66" y1="62.35" x2="70.02" y2="63.01"/>
        <line class="cls-1" x1="70.5" y1="63.01" x2="70.86" y2="63.01"/>
        <path class="cls-1" d="M70.83,63a.45.45,0,0,0,.45-.45"/>
        <line class="cls-1" x1="71.34" y1="62.53" x2="71.34" y2="61.99"/>
        <path class="cls-1" d="M71.28,62a.45.45,0,0,0-.45-.45"/>
        <polyline class="cls-1" points="70.86 61.51 70.5 61.51 70.5 63.01"/>
        <path class="cls-1" d="M58.54,61.51a.31.31,0,0,0-.32.24"/>
        <path class="cls-1" d="M58.81,62a.32.32,0,0,0,0-.34.32.32,0,0,0-.29-.16"/>
        <polyline class="cls-1" points="58.8 61.98 58.2 63.01 58.87 63.01"/>
        <polyline class="cls-1" points="59.34 63.01 59.34 61.51 59.77 61.51"/>
        <path class="cls-1" d="M59.73,62.29a.4.4,0,0,0,.4-.39.39.39,0,0,0-.4-.39"/>
        <line class="cls-1" x1="59.76" y1="62.35" x2="59.34" y2="62.35"/>
        <line class="cls-1" x1="59.88" y1="62.35" x2="60.18" y2="63.01"/>
        <line class="cls-1" x1="60.66" y1="63.01" x2="61.02" y2="63.01"/>
        <path class="cls-1" d="M61,63a.45.45,0,0,0,.45-.45"/>
        <line class="cls-1" x1="61.5" y1="62.53" x2="61.5" y2="61.99"/>
        <path class="cls-1" d="M61.44,62a.45.45,0,0,0-.45-.45"/>
        <polyline class="cls-1" points="61.02 61.51 60.66 61.51 60.66 63.01"/>
        <polyline class="cls-1" points="48.37 63.01 48.37 61.51 48.06 61.87"/>
        <polyline class="cls-1" points="48.84 63.01 48.84 61.51 49.27 61.51"/>
        <path class="cls-1" d="M49.23,62.29a.4.4,0,0,0,.4-.39.39.39,0,0,0-.4-.39"/>
        <line class="cls-1" x1="49.26" y1="62.35" x2="48.84" y2="62.35"/>
        <line class="cls-1" x1="49.32" y1="62.35" x2="49.68" y2="63.01"/>
        <line class="cls-1" x1="50.16" y1="63.01" x2="50.52" y2="63.01"/>
        <path class="cls-1" d="M50.49,63a.45.45,0,0,0,.45-.45"/>
        <line class="cls-1" x1="51" y1="62.53" x2="51" y2="61.99"/>
        <path class="cls-1" d="M50.94,62a.45.45,0,0,0-.45-.45"/>
        <polyline class="cls-1" points="50.52 61.51 50.16 61.51 50.16 63.01"/>
        <path class="cls-1" d="M140.28,44.5a2,2,0,1,0-1.95,2,2,2,0,0,0,1.95-2"/>
        <polyline class="cls-1" points="137.76 44.16 137.76 44.05 137.76 44.34 137.76 44.16 137.65 44.05 137.47 44.05 137.34 44.05 137.22 44.05 137.1 44.16 137.1 44.28 137.16 44.34 137.22 44.41 137.28 44.47 137.59 44.59 137.71 44.59 137.76 44.7"/>
        <polyline class="cls-1" points="137.1 44.28 137.22 44.34 137.28 44.41 137.59 44.52 137.71 44.59 137.76 44.59 137.76 44.7 137.76 44.88 137.71 45.01 137.53 45.06 137.41 45.06 137.22 45.01 137.16 44.88 137.1 44.77 137.1 45.06 137.16 44.88"/>
        <polyline class="cls-1" points="138.19 44.05 138.54 44.59 138.54 45.06 138.54 44.59 138.25 44.05"/>
        <line class="cls-1" x1="138.9" y1="44.04" x2="138.54" y2="44.59"/>
        <line class="cls-1" x1="138.06" y1="44.04" x2="138.36" y2="44.04"/>
        <line class="cls-1" x1="138.72" y1="44.04" x2="139.02" y2="44.04"/>
        <line class="cls-1" x1="138.36" y1="45.07" x2="138.72" y2="45.07"/>
        <polyline class="cls-1" points="139.5 44.05 139.5 44.83 139.44 45.01 139.32 45.06 139.26 45.06 139.15 45.01 139.09 44.88 139.09 44.83 139.15 44.77 139.21 44.83 139.15 44.83"/>
        <polyline class="cls-1" points="139.44 44.05 139.44 44.83 139.38 45.01 139.32 45.06"/>
        <line class="cls-1" x1="139.32" y1="44.04" x2="139.63" y2="44.04"/>
        <path class="cls-1" d="M130.08,44.5a2,2,0,1,0-2,2,2,2,0,0,0,2-2"/>
        <line class="cls-1" x1="127.08" y1="43.93" x2="127.32" y2="45.13"/>
        <line class="cls-1" x1="127.14" y1="43.93" x2="127.32" y2="44.82"/>
        <polyline class="cls-1" points="127.33 45.13 127.56 43.92 127.81 45.13"/>
        <line class="cls-1" x1="127.63" y1="43.93" x2="127.8" y2="44.82"/>
        <line class="cls-1" x1="127.98" y1="43.93" x2="127.8" y2="45.13"/>
        <line class="cls-1" x1="126.96" y1="43.93" x2="127.32" y2="43.93"/>
        <line class="cls-1" x1="127.86" y1="43.93" x2="128.16" y2="43.93"/>
        <line class="cls-1" x1="128.46" y1="45.13" x2="128.46" y2="43.93"/>
        <line class="cls-1" x1="128.52" y1="43.93" x2="128.52" y2="45.13"/>
        <line class="cls-1" x1="129.18" y1="45.13" x2="129.18" y2="43.93"/>
        <line class="cls-1" x1="129.24" y1="43.93" x2="129.24" y2="45.13"/>
        <line class="cls-1" x1="128.28" y1="43.93" x2="128.7" y2="43.93"/>
        <line class="cls-1" x1="129" y1="43.93" x2="129.42" y2="43.93"/>
        <line class="cls-1" x1="128.52" y1="44.53" x2="129.18" y2="44.53"/>
        <line class="cls-1" x1="128.28" y1="45.13" x2="128.7" y2="45.13"/>
        <line class="cls-1" x1="129" y1="45.13" x2="129.42" y2="45.13"/>
        <path class="cls-1" d="M140.28,17.19a2,2,0,1,0-1.95,2,1.94,1.94,0,0,0,1.95-2"/>
        <polyline class="cls-1" points="137.76 16.86 137.76 16.68 137.76 16.98 137.76 16.86 137.65 16.75 137.47 16.68 137.34 16.68 137.22 16.75 137.1 16.86 137.1 16.98 137.16 17.05 137.22 17.11 137.28 17.16 137.59 17.23 137.71 17.29 137.76 17.41"/>
        <polyline class="cls-1" points="137.1 16.98 137.22 17.05 137.28 17.11 137.59 17.23 137.71 17.23 137.76 17.29 137.76 17.41 137.76 17.59 137.71 17.7 137.53 17.77 137.41 17.77 137.22 17.7 137.16 17.59 137.1 17.46 137.1 17.77 137.16 17.59"/>
        <polyline class="cls-1" points="138.19 16.68 138.54 17.23 138.54 17.77 138.54 17.23 138.25 16.68"/>
        <line class="cls-1" x1="138.9" y1="16.69" x2="138.54" y2="17.23"/>
        <line class="cls-1" x1="138.06" y1="16.69" x2="138.36" y2="16.69"/>
        <line class="cls-1" x1="138.72" y1="16.69" x2="139.02" y2="16.69"/>
        <line class="cls-1" x1="138.36" y1="17.76" x2="138.72" y2="17.76"/>
        <polyline class="cls-1" points="139.5 16.68 139.5 17.52 139.44 17.7 139.32 17.77 139.26 17.77 139.15 17.7 139.09 17.59 139.09 17.46 139.15 17.46 139.21 17.46 139.15 17.52"/>
        <polyline class="cls-1" points="139.44 16.68 139.44 17.52 139.38 17.7 139.32 17.77"/>
        <line class="cls-1" x1="139.32" y1="16.69" x2="139.63" y2="16.69"/>
        <path class="cls-1" d="M130.08,17.19a2,2,0,1,0-2,2,1.94,1.94,0,0,0,2-2"/>
        <line class="cls-1" x1="127.08" y1="16.63" x2="127.32" y2="17.83"/>
        <line class="cls-1" x1="127.14" y1="16.63" x2="127.32" y2="17.53"/>
        <polyline class="cls-1" points="127.33 17.82 127.56 16.63 127.81 17.82"/>
        <line class="cls-1" x1="127.63" y1="16.63" x2="127.8" y2="17.53"/>
        <line class="cls-1" x1="127.98" y1="16.63" x2="127.8" y2="17.83"/>
        <line class="cls-1" x1="126.96" y1="16.63" x2="127.32" y2="16.63"/>
        <line class="cls-1" x1="127.86" y1="16.63" x2="128.16" y2="16.63"/>
        <line class="cls-1" x1="128.46" y1="17.83" x2="128.46" y2="16.63"/>
        <line class="cls-1" x1="128.52" y1="16.63" x2="128.52" y2="17.83"/>
        <line class="cls-1" x1="129.18" y1="17.83" x2="129.18" y2="16.63"/>
        <line class="cls-1" x1="129.24" y1="16.63" x2="129.24" y2="17.83"/>
        <line class="cls-1" x1="128.28" y1="16.63" x2="128.7" y2="16.63"/>
        <line class="cls-1" x1="129" y1="16.63" x2="129.42" y2="16.63"/>
        <line class="cls-1" x1="128.52" y1="17.23" x2="129.18" y2="17.23"/>
        <line class="cls-1" x1="128.28" y1="17.83" x2="128.7" y2="17.83"/>
        <line class="cls-1" x1="129" y1="17.83" x2="129.42" y2="17.83"/>
        <polyline class="cls-1" points="33.3 3.42 33.3 1.93 32.95 2.29"/>
        <polyline class="cls-1" points="34.02 2.4 34.33 2.4 34.33 3.19"/>
        <line class="cls-1" x1="34.08" y1="3.43" x2="34.02" y2="3.43"/>
        <path class="cls-1" d="M34.05,3.43a.28.28,0,0,0,.27-.27"/>
        <line class="cls-1" x1="34.44" y1="3.43" x2="34.32" y2="3.19"/>
        <line class="cls-1" x1="33.78" y1="3.19" x2="33.78" y2="2.71"/>
        <path class="cls-1" d="M33.72,3.16a.28.28,0,0,0,.27.27"/>
        <path class="cls-1" d="M34,2.41a.28.28,0,0,0-.27.27"/>
        <polyline class="cls-1" points="33.3 54.13 33.3 52.63 32.95 52.98"/>
        <line class="cls-1" x1="33.78" y1="52.63" x2="34.74" y2="54.13"/>
        <line class="cls-1" x1="34.74" y1="52.63" x2="33.78" y2="54.13"/>
        <polyline class="cls-1" points="33.3 34.98 33.3 33.48 32.95 33.84"/>
        <polyline class="cls-1" points="34.02 33.97 34.33 33.97 34.33 34.69"/>
        <line class="cls-1" x1="34.08" y1="34.99" x2="34.02" y2="34.99"/>
        <path class="cls-1" d="M34.05,34.93a.28.28,0,0,0,.27-.27"/>
        <line class="cls-1" x1="34.44" y1="34.99" x2="34.32" y2="34.75"/>
        <line class="cls-1" x1="33.78" y1="34.69" x2="33.78" y2="34.21"/>
        <path class="cls-1" d="M33.72,34.66a.28.28,0,0,0,.27.27"/>
        <path class="cls-1" d="M34,33.91a.28.28,0,0,0-.27.27"/>
        <polyline class="cls-1" points="33.3 28.75 33.3 27.3 32.95 27.61"/>
        <line class="cls-1" x1="33.78" y1="27.31" x2="34.74" y2="28.75"/>
        <line class="cls-1" x1="34.74" y1="27.31" x2="33.78" y2="28.75"/>
        <line class="cls-1" x1="19.92" y1="52.68" x2="20.94" y2="54.13"/>
        <line class="cls-1" x1="20.94" y1="52.68" x2="19.92" y2="54.13"/>
        <line class="cls-1" x1="19.92" y1="27.31" x2="20.94" y2="28.81"/>
        <line class="cls-1" x1="20.94" y1="27.31" x2="19.92" y2="28.81"/>
        <polyline class="cls-1" points="19.93 3.42 20.41 1.99 20.95 3.42"/>
        <line class="cls-1" x1="20.76" y1="3.01" x2="20.1" y2="3.01"/>
      </g>
    </g>
  </g>
</svg>
